<?xml version="1.0" encoding="UTF-8" standalone="no"?>
<!-- Created with Inkscape (http://www.inkscape.org/) -->

<svg
   width="114.0509mm"
   height="70.947998mm"
   viewBox="0 0 114.0509 70.947998"
   version="1.1"
   id="svg4541"
   inkscape:version="1.2.2 (b0a8486541, 2022-12-01)"
   sodipodi:docname="contact.svg"
   xmlns:inkscape="http://www.inkscape.org/namespaces/inkscape"
   xmlns:sodipodi="http://sodipodi.sourceforge.net/DTD/sodipodi-0.dtd"
   xmlns="http://www.w3.org/2000/svg"
   xmlns:svg="http://www.w3.org/2000/svg">
  <sodipodi:namedview
     id="namedview4543"
     pagecolor="#ffffff"
     bordercolor="#999999"
     borderopacity="1"
     inkscape:showpageshadow="0"
     inkscape:pageopacity="0"
     inkscape:pagecheckerboard="0"
     inkscape:deskcolor="#d1d1d1"
     inkscape:document-units="mm"
     showgrid="false"
     inkscape:zoom="2.7490445"
     inkscape:cx="226.98796"
     inkscape:cy="135.86539"
     inkscape:window-width="1854"
     inkscape:window-height="1011"
     inkscape:window-x="66"
     inkscape:window-y="32"
     inkscape:window-maximized="1"
     inkscape:current-layer="layer1" />
  <defs
     id="defs4538" />
  <g
     inkscape:label="Calque 1"
     inkscape:groupmode="layer"
     id="layer1"
     transform="translate(-21.918584,-5.1391752)">
    <g
       inkscape:groupmode="layer"
       id="layer12"
       inkscape:label="Phone"
       transform="matrix(-1.0267849,-0.47534688,0.47534688,-1.0267849,384.88929,239.20888)">
      <path
         id="rect5453"
         style="fill:#b3b3b3;stroke-width:0.169022"
         d="m 284.02245,28.600781 c -7.12581,1.222893 -7.84232,18.196824 -7.82036,27.834074 0.022,9.68568 1.35183,27.937844 7.98705,27.937844 2.56546,-0.113876 7.62085,-0.347289 7.6546,-0.870635 0.0194,-0.300797 0.12146,-12.237894 -0.12517,-12.28227 -5.92257,-1.376867 -7.52564,-9.151781 -7.45713,-14.622862 0.0653,-5.216571 0.24541,-13.649641 7.45713,-13.760199 0.24718,-0.04186 0.14192,-12.195278 0.0978,-12.901322 -0.0386,-0.616637 -5.16706,-1.55152 -7.7939,-1.33463 z"
         sodipodi:nodetypes="cacscacsc" />
      <rect
         style="fill:#b3b3b3;stroke-width:0.267387"
         id="rect5689"
         width="7.2675343"
         height="14.535069"
         x="293.14438"
         y="28.637882"
         ry="0.80745691"
         rx="0.80745691" />
      <rect
         style="fill:#b3b3b3;stroke-width:0.267387"
         id="rect5689-5"
         width="7.2675343"
         height="14.535069"
         x="293.14438"
         y="70.10453"
         ry="0.80745691"
         rx="0.80745691" />
    </g>
    <g
       inkscape:groupmode="layer"
       id="layer13"
       inkscape:label="Letter"
       transform="matrix(0.55375502,0.11569866,-0.11569866,0.55375502,-94.040184,-85.504386)">
      <rect
         style="fill:#000000;stroke-width:0.172055"
         id="rect8993"
         width="83.536812"
         height="46.187397"
         x="250.17574"
         y="111.29985"
         rx="0.6278711"
         ry="0.69429827" />
      <rect
         style="fill:#b3b3b3;stroke-width:0.166942"
         id="rect8993-3"
         width="81.585175"
         height="44.523167"
         x="251.15157"
         y="112.13197"
         rx="0.61320233"
         ry="0.66928118" />
      <path
         id="rect9154"
         style="fill:#000000;stroke-width:0.312121"
         d="m 332.68454,112.49337 -39.50195,26.48094 c -0.68609,0.45994 -1.9559,0.40876 -2.27183,0.19651 l -40.37497,-27.12523 c 0.021,-0.12267 82.14875,-0.11297 82.14875,-0.11297 z"
         sodipodi:nodetypes="cssccc" />
      <path
         id="rect9154-6"
         style="fill:#b3b3b3;stroke-width:0.29655"
         d="m 330.63552,112.61591 -37.53137,25.15992 c -0.65187,0.43699 -1.85833,0.38838 -2.1585,0.18672 L 252.5848,112.19047 c 0.02,-0.11656 78.05072,-0.10734 78.05072,-0.10734 z"
         sodipodi:nodetypes="cssccc" />
      <g
         id="g12533"
         inkscape:label="Speed"
         transform="matrix(0.79527469,0,0,0.79527469,49.354334,23.199431)">
        <rect
           style="fill:#000000;stroke-width:0.256299"
           id="rect12418"
           width="39.890327"
           height="3.7524445"
           x="360.88663"
           y="116.34878"
           rx="0.93047804"
           ry="1.4067564" />
        <rect
           style="fill:#000000;stroke-width:0.23143"
           id="rect12418-2"
           width="32.52459"
           height="3.7524445"
           x="375.41855"
           y="124.60771"
           rx="0.75866556"
           ry="1.4067564" />
        <rect
           style="fill:#000000;stroke-width:0.209063"
           id="rect12418-2-9"
           width="26.541483"
           height="3.7524445"
           x="362.41824"
           y="137.60637"
           rx="0.61910415"
           ry="1.4067564" />
        <rect
           style="fill:#000000;stroke-width:0.240883"
           id="rect12418-2-9-1"
           width="35.236107"
           height="3.7524445"
           x="380.05042"
           y="149.02325"
           rx="0.82191414"
           ry="1.4067564" />
        <rect
           style="fill:#000000;stroke-width:0.236593"
           id="rect12418-2-9-1-2"
           width="33.991947"
           height="3.7524445"
           x="372.26816"
           y="161.90674"
           rx="0.79289293"
           ry="1.4067564" />
      </g>
    </g>
    <g
       inkscape:groupmode="layer"
       id="layer14"
       inkscape:label="Line"
       transform="matrix(0.56917699,-0.16851963,0.16851963,0.56917699,-157.25012,97.777072)">
      <path
         id="rect14157"
         style="fill:#00ff00;stroke-width:0.210416"
         d="m 318.83383,3.7394597 c 7.80159,-3.23152312 30.72227,-3.04730888 38.07912,0 3.13963,1.3004753 5.90842,4.0692655 7.20889,7.2088863 3.4047,8.219672 3.00084,30.834456 0,38.079125 -1.30047,3.139621 -4.26588,5.509736 -7.20889,7.208885 -5.28258,3.049903 -31.57512,2.694046 -38.07912,0 -3.13962,-1.300472 -5.50974,-4.265868 -7.20889,-7.208885 -4.47878,-7.757478 -2.82191,-31.266421 0,-38.079125 1.30047,-3.1396208 4.06926,-5.908411 7.20889,-7.2088863 z"
         sodipodi:nodetypes="sssssssss" />
      <path
         id="path14316"
         style="fill:#ffffff;stroke-width:0.193332"
         d="m 359.31159,26.707157 c 0,4.628769 -2.14144,9.04279 -6.33296,11.852703 -9.49022,6.362078 -15.30324,14.180065 -15.59785,9.821827 -0.44736,-6.617953 -0.55391,-2.719239 -0.57469,-3.928666 -19.34655,-3.696602 -20.73861,-13.117095 -20.73861,-17.745864 0,-9.257536 9.68052,-16.7622524 21.62205,-16.7622524 11.94154,0 21.62206,7.5047164 21.62206,16.7622524 z"
         sodipodi:nodetypes="ssscsss" />
    </g>
    <text
       xml:space="preserve"
       style="font-size:27.1995px;fill:#ffffff;stroke-width:2.26662"
       x="62.492325"
       y="71.089737"
       id="text7539"><tspan
         sodipodi:role="line"
         id="tspan7537"
         style="fill:#000000;stroke-width:2.26662"
         x="62.492325"
         y="71.089737">@</tspan></text>
  </g>
</svg>
