<?xml version="1.0" encoding="UTF-8" standalone="no"?>
<svg
   enable-background="new -0.258 -0.548 123.547 123.539"
   viewBox="-0.258 -0.548 123.539 123.555"
   version="1.1"
   id="svg1055"
   sodipodi:docname="mail.svg"
   width="123.539"
   height="123.555"
   inkscape:version="1.2.2 (b0a8486541, 2022-12-01)"
   xmlns:inkscape="http://www.inkscape.org/namespaces/inkscape"
   xmlns:sodipodi="http://sodipodi.sourceforge.net/DTD/sodipodi-0.dtd"
   xmlns="http://www.w3.org/2000/svg"
   xmlns:svg="http://www.w3.org/2000/svg">
  <defs
     id="defs1059" />
  <sodipodi:namedview
     id="namedview1057"
     pagecolor="#ffffff"
     bordercolor="#999999"
     borderopacity="1"
     inkscape:showpageshadow="0"
     inkscape:pageopacity="0"
     inkscape:pagecheckerboard="0"
     inkscape:deskcolor="#d1d1d1"
     showgrid="false"
     inkscape:zoom="3.7912402"
     inkscape:cx="68.05161"
     inkscape:cy="54.203898"
     inkscape:window-width="1674"
     inkscape:window-height="749"
     inkscape:window-x="710"
     inkscape:window-y="206"
     inkscape:window-maximized="0"
     inkscape:current-layer="svg1055" />
  <path
     d="M 108.515,-0.548 H 14.484 c -8.148,0 -14.742,6.609 -14.742,14.766 v 94.023 c 0,8.148 6.594,14.766 14.742,14.766 h 94.031 c 8.148,0 14.766,-6.617 14.766,-14.766 V 14.218 C 123.28,6.062 116.663,-0.548 108.515,-0.548 Z"
     fill="#231f20"
     id="path1049"
     inkscape:label="path1049" />
  <path
     d="M 99.140859,83.690996 76.509059,61.038833 99.139973,38.386671 v 45.304325 z m -70.681546,4.301839 22.672525,-22.630914 0.968556,0.926945 c 5.353616,5.104837 13.860793,5.104837 18.985993,0 L 72.062025,65.32031 94.83902,87.992835 Z M 24.392088,38.386671 46.989359,61.038833 24.351362,83.690996 Z M 94.797409,34.063584 66.957188,61.882557 c -2.828643,2.849891 -7.89187,2.787032 -10.803734,-0.110667 L 28.500924,34.063584 Z M 18.243441,27.88041 V 94.08659 H 105.49756 V 27.88041 Z"
     fill="#ffffff"
     id="path1053"
     style="stroke-width:0.885334" />
</svg>
