<?xml version="1.0" encoding="UTF-8" standalone="no"?>
<!-- Created with Inkscape (http://www.inkscape.org/) -->

<svg
   width="63.99942mm"
   height="30.392315mm"
   viewBox="0 0 63.99942 30.392315"
   version="1.1"
   id="svg7227"
   inkscape:version="1.2.2 (b0a8486541, 2022-12-01)"
   sodipodi:docname="analysis.svg"
   xmlns:inkscape="http://www.inkscape.org/namespaces/inkscape"
   xmlns:sodipodi="http://sodipodi.sourceforge.net/DTD/sodipodi-0.dtd"
   xmlns="http://www.w3.org/2000/svg"
   xmlns:svg="http://www.w3.org/2000/svg">
  <sodipodi:namedview
     id="namedview7229"
     pagecolor="#ffffff"
     bordercolor="#999999"
     borderopacity="1"
     inkscape:showpageshadow="0"
     inkscape:pageopacity="0"
     inkscape:pagecheckerboard="0"
     inkscape:deskcolor="#d1d1d1"
     inkscape:document-units="mm"
     showgrid="false"
     inkscape:zoom="2.6518198"
     inkscape:cx="91.635185"
     inkscape:cy="68.820664"
     inkscape:window-width="1854"
     inkscape:window-height="1011"
     inkscape:window-x="66"
     inkscape:window-y="32"
     inkscape:window-maximized="1"
     inkscape:current-layer="layer1" />
  <defs
     id="defs7224" />
  <g
     inkscape:label="Calque 1"
     inkscape:groupmode="layer"
     id="layer1"
     transform="translate(-5.1738324,-1.5859773)">
    <g
       id="g10211"
       inkscape:label="database"
       sodipodi:insensitive="true">
      <path
         style="fill:#1a1a1a;stroke-width:0.260872"
         d="M 5.2088673,26.464353 H 21.645411 c 1e-6,2.432604 -3.679446,4.404619 -8.218272,4.404619 -4.5388271,0 -8.2182727,-1.972015 -8.2182717,-4.404619"
         id="path7763-7-6-6"
         sodipodi:nodetypes="ccsc" />
      <ellipse
         style="fill:#cccccc;stroke-width:0.297457"
         id="path7763-2-0-0-2"
         cx="13.427139"
         cy="24.109365"
         rx="7.9893894"
         ry="5.8907561" />
      <path
         style="fill:#1a1a1a;stroke-width:0.260872"
         d="M 5.2088673,20.06256 H 21.645411 c 1e-6,2.432604 -3.679446,4.404619 -8.218272,4.404619 -4.5388267,0 -8.2182727,-1.972015 -8.2182717,-4.404619"
         id="path7763-7-6"
         sodipodi:nodetypes="ccsc" />
      <ellipse
         style="fill:#cccccc;stroke-width:0.297457"
         id="path7763-2-0-0"
         cx="13.427139"
         cy="17.707573"
         rx="7.9893894"
         ry="5.8907561" />
      <path
         style="fill:#1a1a1a;stroke-width:0.260872"
         d="M 5.1756412,7.5123483 H 21.612185 c 0,-2.4326033 -3.679446,-4.4046179 -8.218272,-4.4046179 -4.5388261,-10e-8 -8.2182718,1.9720145 -8.2182718,4.4046179 V 14.480298 H 21.612185 c 1e-6,2.432604 -3.679446,4.404619 -8.218272,4.404619 -4.5388267,0 -8.2182726,-1.972015 -8.2182718,-4.404619"
         id="path7763-7" />
      <ellipse
         style="fill:#cccccc;stroke-width:0.297457"
         id="path7763-2-0"
         cx="13.427139"
         cy="12.125311"
         rx="7.9893894"
         ry="5.8907561" />
      <path
         style="fill:#1a1a1a;stroke-width:0.264143"
         d="M 5.2286875,7.7027524 H 21.619662 c 10e-7,2.5009296 -3.669245,4.5283336 -8.195487,4.5283336 -4.5262428,0 -8.1954885,-2.027404 -8.1954875,-4.5283336"
         id="path7763-7-3"
         sodipodi:nodetypes="ccsc" />
      <rect
         style="fill:#1a1a1a;stroke-width:0.341587"
         id="rect10012"
         width="1.2323039"
         height="19.629593"
         x="5.1738324"
         y="7.3418546"
         ry="0.31255066" />
      <rect
         style="fill:#1a1a1a;stroke-width:0.297855"
         id="rect10012-9"
         width="0.94888723"
         height="19.383095"
         x="20.670013"
         y="7.3896961"
         ry="0.30862585" />
      <ellipse
         style="fill:#cccccc;stroke-width:0.222992"
         id="path7763-2"
         cx="13.389378"
         cy="7.456501"
         rx="7.3301091"
         ry="3.6082914" />
    </g>
    <g
       id="g10303"
       inkscape:label="database data">
      <path
         id="path10214"
         style="fill:#1a1a1a;stroke-width:0.264583"
         d="m 50.227139,8.2270365 c 0,3.4056635 -5.243133,6.1664995 -11.710866,6.1664995 -3.233866,0 -8.280832,-1.806126 -8.280832,-1.806126 -3.508915,-0.493918 -7.587654,-0.844007 -7.587654,-0.844007 -0.02114,-0.0032 2.36095,-1.9623445 4.157621,-3.5163665 -0.08931,-3.4044923 5.243133,-6.1664993 11.710865,-6.1664996 6.467733,0 11.710866,2.7608359 11.710866,6.1664996 z"
         sodipodi:nodetypes="sssccss" />
      <path
         id="path10214-1"
         style="fill:#cccccc;stroke-width:0.249579"
         d="m 49.749248,8.1140304 c -0.158473,3.0708806 -4.989447,5.7125906 -11.143722,5.7662256 -3.883179,0.03384 -8.722575,-1.882647 -8.722575,-1.882647 -3.333376,-0.264246 -6.386333,-0.542624 -6.386333,-0.542624 0,0 2.057756,-1.4569269 3.708562,-2.9468219 C 27.1202,5.3246602 32.391908,2.3412478 38.605526,2.409583 44.750624,2.477165 49.406729,4.8831252 49.749248,8.1140304 Z"
         sodipodi:nodetypes="cssccsc" />
      <rect
         style="fill:#666666;stroke-width:0.264583"
         id="rect10357"
         width="12.643642"
         height="1.2758645"
         x="31.241331"
         y="4.7351046"
         ry="0.31255066" />
      <rect
         style="fill:#666666;stroke-width:0.286302"
         id="rect10357-8"
         width="14.804594"
         height="1.2758645"
         x="31.241331"
         y="6.4861698"
         ry="0.31255066" />
      <rect
         style="fill:#666666;stroke-width:0.252019"
         id="rect10357-8-7"
         width="11.471385"
         height="1.2758645"
         x="31.241331"
         y="8.2372351"
         ry="0.31255066" />
      <rect
         style="fill:#666666;stroke-width:0.280283"
         id="rect10357-8-7-9"
         width="14.188686"
         height="1.2758645"
         x="31.241331"
         y="9.9883003"
         ry="0.31255066" />
    </g>
    <g
       id="g8310"
       inkscape:label="Loupe"
       transform="matrix(-0.22370105,0,0,0.22369655,56.404661,14.589205)">
      <path
         id="rect7836"
         style="fill:#b3b3b3;stroke-width:0.264583"
         d="M 131.69994,14.757911 C 123.57178,5.9269509 109.82373,5.3571079 100.99261,13.485124 93.377423,20.50353 91.072567,33.368068 96.457768,42.213933 L 64.118829,71.894445 c -0.549033,0.503899 -0.583454,1.352361 -0.07878,1.900682 l 3.225933,3.504921 c 0.504676,0.548321 1.351649,0.582682 1.900683,0.07878 L 101.50556,47.698315 c 8.36987,6.098734 21.29709,4.775199 28.9216,-2.233069 8.83096,-8.128177 9.4008,-21.87623 1.27278,-30.707335 z m -2.44942,2.25445 c 6.51608,7.079762 5.73615,18.398718 -1.74204,25.281789 -7.47832,6.882924 -18.823,6.723476 -25.33924,-0.356146 -6.516073,-7.079759 -5.736139,-18.398714 1.74205,-25.281788 7.47833,-6.8829241 18.823,-6.7234751 25.33923,0.356145 z"
         sodipodi:nodetypes="cccsssscccccccc" />
      <path
         style="fill:#ececec;stroke-width:0.292211"
         d="M 112.10025,46.996118 C 104.03583,45.545379 98.487572,39.45099 98.000368,31.50836 97.204412,18.532278 110.61226,8.3759625 122.64108,12.843255 c 7.71429,2.864953 12.13927,10.838167 10.5013,18.921902 -1.40452,6.931559 -6.06963,12.222353 -12.7561,14.466927 -2.47723,0.831577 -6.06935,1.162798 -8.28603,0.764034 z"
         id="path8168" />
      <path
         style="fill:#000000;stroke-width:0.254183"
         d="m 256.08448,293.23287 c -0.65332,-0.29678 -2.08233,-1.59954 -3.96696,-3.61651 -6.88141,-7.36459 -10.45102,-11.33293 -10.81603,-12.02419 -0.54968,-1.04101 -0.54952,-2.89816 3.5e-4,-4.11898 0.36585,-0.81225 13.4536,-12.95051 61.93114,-57.43822 l 61.46727,-56.40833 -1.26009,-2.28764 c -10.57492,-19.19836 -12.72427,-42.65407 -6.03261,-65.833281 1.59348,-5.519643 3.33891,-9.969406 6.08192,-15.505136 4.45435,-8.989413 8.70818,-15.096499 15.11481,-21.699807 6.86189,-7.072551 13.35583,-11.820921 22.24721,-16.267161 9.81922,-4.910215 19.3842,-7.542167 30.59676,-8.419161 20.09209,-1.571511 40.73494,4.807683 56.90171,17.584156 3.34841,2.646223 10.45823,9.756062 13.10448,13.104472 17.8537,22.591293 22.63729,51.987588 12.89524,79.244578 -0.64929,1.81661 -2.25099,5.47619 -3.55935,8.1324 -9.82702,19.95082 -26.77002,34.53659 -48.88137,42.08064 -6.14027,2.09496 -12.38607,3.50976 -19.75841,4.47567 -4.17802,0.5474 -16.17459,0.62471 -20.33461,0.13104 -14.12077,-1.67569 -25.69019,-5.81989 -36.38383,-13.03279 l -1.815,-1.22423 -61.34936,56.32063 c -37.98196,34.86863 -61.73662,56.50062 -62.36609,56.79318 -1.28528,0.59738 -2.5151,0.60018 -3.81718,0.009 z m 187.66456,-114.894 c 29.94831,-4.58988 54.2731,-27.60139 60.15966,-56.91171 1.04405,-5.19852 1.26601,-7.57965 1.27269,-13.65376 0.008,-6.84738 -0.40547,-10.383485 -1.902,-16.284244 -1.2139,-4.786461 -2.35754,-7.898192 -4.57139,-12.438382 -3.12002,-6.398601 -6.94442,-11.707829 -12.178,-16.906175 -15.25999,-15.157242 -37.41407,-21.48817 -59.50331,-17.004143 -10.33932,2.09884 -20.596,6.824136 -29.53847,13.608503 -3.33684,2.531549 -10.69828,9.883647 -13.20349,13.186729 -7.8584,10.361177 -12.51459,21.403864 -14.36087,34.058432 -0.54517,3.73661 -0.62278,13.50599 -0.13631,17.15733 1.62717,12.21318 6.22135,23.08829 13.69085,32.40827 2.58552,3.22606 7.59845,8.08744 10.89596,10.56657 9.46296,7.11441 20.28067,11.30099 32.77942,12.68601 3.42982,0.38007 12.76371,0.11379 16.59526,-0.47343 z"
         id="path10214-2"
         transform="scale(0.26458333)" />
      <path
         id="rect10270"
         style="stroke-width:0.265667"
         d="m 127.0668,19.939297 c -0.32716,0 -0.59056,0.261243 -0.59056,0.585746 0,0 3.51034,3.73234 3.51034,8.783968 0,5.051628 -3.51034,8.568236 -3.51034,8.568236 -0.12847,0.298442 0.2634,0.585747 0.59056,0.585747 0.32717,0 0.59056,-0.261243 0.59056,-0.585747 0,0 3.51034,-3.525317 3.51034,-8.568236 0,-5.042919 -3.51034,-8.783968 -3.51034,-8.783968 -0.12846,-0.298441 -0.26339,-0.585746 -0.59056,-0.585746 z"
         sodipodi:nodetypes="sszssszss" />
    </g>
    <text
       xml:space="preserve"
       style="font-size:13.9204px;fill:#666666;stroke-width:1.16003"
       x="52.014858"
       y="11.664347"
       id="text12467"><tspan
         sodipodi:role="line"
         id="tspan12465"
         style="fill:#000000;stroke-width:1.16003"
         x="52.014858"
         y="11.664347">%</tspan></text>
    <g
       id="g12942"
       inkscape:label="display"
       transform="translate(-0.96374512,-2.4010816)">
      <rect
         style="fill:#000000;stroke-width:0.264583"
         id="rect12521"
         width="25.899998"
         height="16.361893"
         x="44.237"
         y="17.413343"
         ry="0.31255066" />
      <rect
         style="fill:#cccccc;stroke-width:0.256284"
         id="rect12521-0"
         width="25.232525"
         height="15.757674"
         x="44.570736"
         y="17.715452"
         ry="0.30100867" />
      <rect
         style="fill:#000000;stroke-width:0.264583"
         id="rect12552"
         width="0.43939644"
         height="16.116751"
         x="48.022877"
         y="17.497498"
         ry="0" />
      <rect
         style="fill:#916f6f;stroke-width:0.264583"
         id="rect12554"
         width="1.2429302"
         height="1.2429302"
         x="45.58012"
         y="18.594305"
         ry="0.1303228" />
      <rect
         style="fill:#916f6f;stroke-width:0.264583"
         id="rect12554-2-3"
         width="1.2429302"
         height="1.2429302"
         x="45.58012"
         y="20.715084"
         ry="0.1303228" />
      <rect
         style="fill:#916f6f;stroke-width:0.264583"
         id="rect12554-2-3-7"
         width="1.2429302"
         height="1.2429302"
         x="45.58012"
         y="22.835865"
         ry="0.1303228" />
      <rect
         style="fill:#916f6f;stroke-width:0.264583"
         id="rect12554-2-3-7-5"
         width="1.2429302"
         height="1.2429302"
         x="45.58012"
         y="24.956646"
         ry="0.1303228" />
      <rect
         style="fill:#916f6f;stroke-width:0.264583"
         id="rect12554-2-3-7-5-9"
         width="1.2429302"
         height="1.2429302"
         x="45.58012"
         y="27.077425"
         ry="0.1303228" />
      <rect
         style="fill:#916f6f;stroke-width:0.264583"
         id="rect12554-2-3-7-5-9-2"
         width="1.2429302"
         height="1.2429302"
         x="45.58012"
         y="29.198206"
         ry="0.1303228" />
      <rect
         style="fill:#916f6f;stroke-width:0.264583"
         id="rect12554-2-3-7-5-9-2-2"
         width="1.2429302"
         height="1.2429302"
         x="45.58012"
         y="31.318985"
         ry="0.1303228" />
      <rect
         style="fill:#916f6f;stroke-width:0.148209"
         id="rect12745"
         width="7.4718466"
         height="1.0853558"
         x="49.073341"
         y="18.673092"
         ry="0.086961135" />
      <rect
         style="fill:#d3bc5f;stroke-width:0.18634"
         id="rect12745-8"
         width="11.811122"
         height="1.0853558"
         x="49.073341"
         y="20.793871"
         ry="0.086961135" />
      <rect
         style="fill:#80b3ff;stroke-width:0.171148"
         id="rect12745-8-9"
         width="9.9637966"
         height="1.0853558"
         x="49.073341"
         y="22.914652"
         ry="0.086961135" />
      <rect
         style="fill:#5fd38d;stroke-width:0.208743"
         id="rect12745-8-9-7"
         width="14.821935"
         height="1.0853558"
         x="49.073341"
         y="25.035433"
         ry="0.086961135" />
      <rect
         style="fill:#ff8080;stroke-width:0.227019"
         id="rect12745-8-9-7-3"
         width="17.530859"
         height="1.0853558"
         x="49.073341"
         y="27.156212"
         ry="0.086961135" />
      <rect
         style="fill:#8dd35f;stroke-width:0.190483"
         id="rect12745-8-9-7-3-6"
         width="12.3422"
         height="1.0853558"
         x="49.058235"
         y="29.276993"
         ry="0.086961135" />
      <rect
         style="fill:#aa87de;stroke-width:0.202229"
         id="rect12745-8-9-7-3-6-1"
         width="13.911209"
         height="1.0853558"
         x="49.073341"
         y="31.397772"
         ry="0.086961135" />
    </g>
  </g>
</svg>
